<svg xmlns="http://www.w3.org/2000/svg" viewBox="0 0 1440 320" preserveAspectRatio="none"><path fill="#fff" fill-opacity="1" d="M0,256L26.7,224C53.3,192,107,128,160,133.3C213.3,139,267,213,320,218.7C373.3,224,427,160,480,165.3C533.3,171,587,245,640,234.7C693.3,224,747,128,800,101.3C853.3,75,907,117,960,160C1013.3,203,1067,245,1120,224C1173.3,203,1227,117,1280,74.7C1333.3,32,1387,32,1413,32L1440,32L1440,320L1413.3,320C1386.7,320,1333,320,1280,320C1226.7,320,1173,320,1120,320C1066.7,320,1013,320,960,320C906.7,320,853,320,800,320C746.7,320,693,320,640,320C586.7,320,533,320,480,320C426.7,320,373,320,320,320C266.7,320,213,320,160,320C106.7,320,53,320,27,320L0,320Z"></path></svg>